<?xml version="1.0" encoding="UTF-8"?>
<!DOCTYPE svg PUBLIC "-//W3C//DTD SVG 1.1//EN" "http://www.w3.org/Graphics/SVG/1.1/DTD/svg11.dtd">
<svg version="1.1" xmlns="http://www.w3.org/2000/svg" xmlns:xlink="http://www.w3.org/1999/xlink" x="0" y="0" width="1200" height="300" viewBox="0, 0, 1200, 300">
  <g id="Layer_1">
    <path d="M24,96 L72,96 L72,144 L24,144 L24,96 z" fill="#1603F8"/>
    <path d="M24,144 L72,144 L72,192 L24,192 L24,144 z" fill="#FDCD27"/>
    <path d="M24,192 L72,192 L72,240 L24,240 L24,192 z" fill="#19B6F9"/>
    <path d="M84,192 L132,192 L132,240 L84,240 L84,192 z" fill="#13902E"/>
    <path d="M84,144 L132,144 L132,192 L84,192 L84,144 z" fill="#23C559"/>
    <path d="M84,96 L132,96 L132,144 L84,144 L84,96 z" fill="#C8CEA9"/>
    <path d="M84,48 L132,48 L132,96 L84,96 L84,48 z" fill="#FC3430"/>
    <path d="M260.903,125.075 L220.355,125.075 L220.355,239 L195.338,239 L195.338,125.075 L154.79,125.075 L154.79,104.522 L260.903,104.522 z" fill="#000000"/>
    <path d="M395.195,143.582 L364.877,239 L346.463,239 Q343.301,239 342.092,234.908 L324.98,179.759 Q324.143,176.969 323.446,174.225 Q322.748,171.482 322.283,168.692 Q321.725,171.482 321.028,174.318 Q320.33,177.155 319.493,179.945 L302.102,234.908 Q300.986,239 297.173,239 L279.503,239 L249.278,143.582 L267.599,143.582 Q270.11,143.582 271.877,144.791 Q273.644,146 274.202,147.86 L287.873,198.824 Q288.896,203.009 289.687,207.008 Q290.477,211.007 291.035,215.006 Q292.058,211.007 293.221,207.008 Q294.383,203.009 295.685,198.824 L311.495,147.674 Q312.053,145.814 313.681,144.605 Q315.308,143.396 317.633,143.396 L327.77,143.396 Q330.188,143.396 331.909,144.605 Q333.629,145.814 334.187,147.674 L349.532,198.824 Q350.741,203.009 351.811,207.055 Q352.88,211.1 353.903,215.099 Q355.112,207.194 357.344,198.824 L371.387,147.86 Q372.038,146 373.712,144.791 Q375.386,143.582 377.711,143.582 z" fill="#000000"/>
    <path d="M432.023,143.582 L432.023,239 L408.959,239 L408.959,143.582 z M435.185,115.775 Q435.185,118.751 433.976,121.355 Q432.767,123.959 430.768,125.912 Q428.768,127.865 426.071,129.027 Q423.374,130.19 420.305,130.19 Q417.329,130.19 414.678,129.027 Q412.028,127.865 410.075,125.912 Q408.122,123.959 406.96,121.355 Q405.797,118.751 405.797,115.775 Q405.797,112.706 406.96,110.009 Q408.122,107.312 410.075,105.359 Q412.028,103.406 414.678,102.243 Q417.329,101.081 420.305,101.081 Q423.374,101.081 426.071,102.243 Q428.768,103.406 430.768,105.359 Q432.767,107.312 433.976,110.009 Q435.185,112.706 435.185,115.775 z" fill="#000000"/>
    <path d="M476.942,155.3 Q479.825,152.417 483.034,149.952 Q486.242,147.488 489.823,145.768 Q493.403,144.047 497.495,143.07 Q501.587,142.094 506.423,142.094 Q514.235,142.094 520.28,144.745 Q526.325,147.395 530.37,152.185 Q534.416,156.974 536.508,163.624 Q538.601,170.273 538.601,178.271 L538.601,239 L515.63,239 L515.63,178.271 Q515.63,169.529 511.631,164.74 Q507.632,159.95 499.448,159.95 Q493.496,159.95 488.288,162.647 Q483.08,165.344 478.43,169.994 L478.43,239 L455.459,239 L455.459,143.582 L469.502,143.582 Q473.966,143.582 475.361,147.767 z" fill="#000000"/>
    <path d="M621.836,180.317 Q621.836,175.853 620.581,171.9 Q619.325,167.948 616.814,164.972 Q614.303,161.996 610.443,160.275 Q606.584,158.555 601.469,158.555 Q591.518,158.555 585.798,164.228 Q580.079,169.901 578.498,180.317 z M578.033,194.174 Q578.591,201.521 580.637,206.868 Q582.683,212.216 586.031,215.703 Q589.379,219.191 593.982,220.911 Q598.586,222.632 604.166,222.632 Q609.746,222.632 613.792,221.33 Q617.837,220.028 620.859,218.447 Q623.882,216.866 626.16,215.564 Q628.439,214.262 630.578,214.262 Q633.461,214.262 634.856,216.401 L641.459,224.771 Q637.646,229.235 632.903,232.257 Q628.16,235.28 622.998,237.093 Q617.837,238.907 612.49,239.651 Q607.142,240.395 602.12,240.395 Q592.169,240.395 583.613,237.093 Q575.057,233.792 568.733,227.328 Q562.409,220.865 558.782,211.332 Q555.155,201.8 555.155,189.245 Q555.155,179.48 558.317,170.877 Q561.479,162.275 567.384,155.904 Q573.29,149.534 581.799,145.814 Q590.309,142.094 601.004,142.094 Q610.025,142.094 617.651,144.977 Q625.277,147.86 630.764,153.393 Q636.251,158.927 639.367,166.971 Q642.482,175.016 642.482,185.339 Q642.482,190.547 641.366,192.36 Q640.25,194.174 637.088,194.174 z" fill="#000000"/>
    <path d="M794.63,143.582 L764.312,239 L745.898,239 Q742.736,239 741.527,234.908 L724.415,179.759 Q723.578,176.969 722.88,174.225 Q722.183,171.482 721.718,168.692 Q721.16,171.482 720.463,174.318 Q719.765,177.155 718.928,179.945 L701.537,234.908 Q700.421,239 696.608,239 L678.938,239 L648.713,143.582 L667.034,143.582 Q669.545,143.582 671.312,144.791 Q673.079,146 673.637,147.86 L687.308,198.824 Q688.331,203.009 689.122,207.008 Q689.912,211.007 690.47,215.006 Q691.493,211.007 692.656,207.008 Q693.818,203.009 695.12,198.824 L710.93,147.674 Q711.488,145.814 713.116,144.605 Q714.743,143.396 717.068,143.396 L727.205,143.396 Q729.623,143.396 731.344,144.605 Q733.064,145.814 733.622,147.674 L748.967,198.824 Q750.176,203.009 751.246,207.055 Q752.315,211.1 753.338,215.099 Q754.547,207.194 756.779,198.824 L770.822,147.86 Q771.473,146 773.147,144.791 Q774.821,143.582 777.146,143.582 z" fill="#000000"/>
    <path d="M848.291,142.094 Q858.893,142.094 867.589,145.535 Q876.284,148.976 882.469,155.3 Q888.653,161.624 892.001,170.738 Q895.349,179.852 895.349,191.105 Q895.349,202.451 892.001,211.565 Q888.653,220.679 882.469,227.096 Q876.284,233.513 867.589,236.954 Q858.893,240.395 848.291,240.395 Q837.596,240.395 828.854,236.954 Q820.112,233.513 813.928,227.096 Q807.743,220.679 804.349,211.565 Q800.954,202.451 800.954,191.105 Q800.954,179.852 804.349,170.738 Q807.743,161.624 813.928,155.3 Q820.112,148.976 828.854,145.535 Q837.596,142.094 848.291,142.094 z M848.291,222.725 Q860.195,222.725 865.915,214.727 Q871.634,206.729 871.634,191.291 Q871.634,175.853 865.915,167.762 Q860.195,159.671 848.291,159.671 Q836.201,159.671 830.389,167.808 Q824.576,175.946 824.576,191.291 Q824.576,206.636 830.389,214.68 Q836.201,222.725 848.291,222.725 z" fill="#000000"/>
    <path d="M934.595,160.136 Q939.059,151.58 945.197,146.697 Q951.335,141.815 959.705,141.815 Q966.308,141.815 970.307,144.698 L968.819,161.903 Q968.354,163.577 967.471,164.275 Q966.587,164.972 965.099,164.972 Q963.704,164.972 960.961,164.507 Q958.217,164.042 955.613,164.042 Q951.8,164.042 948.824,165.158 Q945.848,166.274 943.477,168.367 Q941.105,170.459 939.292,173.435 Q937.478,176.411 935.897,180.224 L935.897,239 L912.926,239 L912.926,143.582 L926.411,143.582 Q929.945,143.582 931.34,144.837 Q932.735,146.093 933.2,149.348 z" fill="#000000"/>
    <path d="M1005.275,100.802 L1005.275,179.945 L1009.553,179.945 Q1011.878,179.945 1013.227,179.34 Q1014.575,178.736 1015.97,176.876 L1039.685,147.581 Q1041.173,145.628 1042.987,144.605 Q1044.8,143.582 1047.683,143.582 L1068.701,143.582 L1039.034,179.015 Q1035.872,183.2 1032.152,185.432 Q1034.105,186.827 1035.64,188.687 Q1037.174,190.547 1038.569,192.686 L1070.375,239 L1049.636,239 Q1046.939,239 1044.986,238.117 Q1043.033,237.233 1041.731,234.908 L1017.365,198.731 Q1016.063,196.592 1014.668,195.941 Q1013.273,195.29 1010.483,195.29 L1005.275,195.29 L1005.275,239 L982.304,239 L982.304,100.802 z" fill="#000000"/>
    <path d="M1139.939,162.182 Q1139.009,163.67 1137.986,164.275 Q1136.963,164.879 1135.382,164.879 Q1133.708,164.879 1131.802,163.949 Q1129.895,163.019 1127.384,161.857 Q1124.873,160.694 1121.664,159.764 Q1118.456,158.834 1114.085,158.834 Q1107.296,158.834 1103.437,161.717 Q1099.577,164.6 1099.577,169.25 Q1099.577,172.319 1101.577,174.411 Q1103.576,176.504 1106.877,178.085 Q1110.179,179.666 1114.364,180.921 Q1118.549,182.177 1122.874,183.665 Q1127.198,185.153 1131.383,187.059 Q1135.568,188.966 1138.87,191.895 Q1142.171,194.825 1144.171,198.917 Q1146.17,203.009 1146.17,208.775 Q1146.17,215.657 1143.705,221.469 Q1141.241,227.282 1136.405,231.514 Q1131.569,235.745 1124.454,238.117 Q1117.34,240.488 1108.04,240.488 Q1103.111,240.488 1098.414,239.604 Q1093.718,238.721 1089.393,237.14 Q1085.069,235.559 1081.396,233.42 Q1077.722,231.281 1074.932,228.77 L1080.233,220.028 Q1081.256,218.447 1082.651,217.61 Q1084.046,216.773 1086.185,216.773 Q1088.324,216.773 1090.23,217.982 Q1092.137,219.191 1094.648,220.586 Q1097.159,221.981 1100.553,223.19 Q1103.948,224.399 1109.156,224.399 Q1113.248,224.399 1116.177,223.423 Q1119.107,222.446 1121.013,220.865 Q1122.92,219.284 1123.803,217.191 Q1124.687,215.099 1124.687,212.867 Q1124.687,209.519 1122.688,207.38 Q1120.688,205.241 1117.386,203.66 Q1114.085,202.079 1109.854,200.824 Q1105.622,199.568 1101.204,198.08 Q1096.787,196.592 1092.556,194.592 Q1088.324,192.593 1085.022,189.524 Q1081.721,186.455 1079.721,181.991 Q1077.722,177.527 1077.722,171.203 Q1077.722,165.344 1080.047,160.043 Q1082.372,154.742 1086.882,150.79 Q1091.393,146.837 1098.135,144.465 Q1104.878,142.094 1113.713,142.094 Q1123.571,142.094 1131.662,145.349 Q1139.753,148.604 1145.147,153.905 z" fill="#000000"/>
  </g>
</svg>
