<?xml version="1.0" standalone="no"?>
<!DOCTYPE svg PUBLIC "-//W3C//DTD SVG 20010904//EN"
 "http://www.w3.org/TR/2001/REC-SVG-20010904/DTD/svg10.dtd">
<svg version="1.0" xmlns="http://www.w3.org/2000/svg"
 width="260.000000pt" height="260.000000pt" viewBox="0 0 260.000000 260.000000"
 preserveAspectRatio="xMidYMid meet">
<metadata>
Created by potrace 1.11, written by Peter Selinger 2001-2013
</metadata>
<g transform="translate(0.000000,260.000000) scale(0.100000,-0.100000)"
fill="#000000" stroke="none">
<path d="M1380 2385 c0 -113 0 -603 0 -1090 0 -487 0 -977 0 -1089 l0 -204
323 1 322 2 0 1293 1 1292 -323 0 -323 0 0 -205z"/>
<path d="M580 1942 c-7 -3 -10 -336 -10 -972 l0 -968 323 1 322 2 1 968 2 967
-22 1 c-71 3 -608 3 -616 1z"/>
</g>
</svg>
