<?xml version="1.0" encoding="UTF-8"?>
<svg width="1050px" height="232px" viewBox="0 0 1050 232" version="1.1" xmlns="http://www.w3.org/2000/svg" xmlns:xlink="http://www.w3.org/1999/xlink">
    <!-- Generator: Sketch 45.2 (43514) - http://www.bohemiancoding.com/sketch -->
    <title>Slice 1</title>
    <desc>Created with Sketch.</desc>
    <defs></defs>
    <g id="Page-1" stroke="none" stroke-width="1" fill="none" fill-rule="evenodd">
        <polygon id="Fill-1" fill="#1603F8" points="0 48 48 48 48 96 0 96"></polygon>
        <polygon id="Fill-2" fill="#FDCD27" points="0 96 48 96 48 144 0 144"></polygon>
        <polygon id="Fill-3" fill="#19B6F9" points="0 144 48 144 48 191.99999 0 191.99999"></polygon>
        <polygon id="Fill-4" fill="#13902E" points="60 144 108 144 108 191.99999 60 191.99999"></polygon>
        <polygon id="Fill-5" fill="#23C559" points="60 96 108 96 108 144 60 144"></polygon>
        <polygon id="Fill-6" fill="#C8CEA9" points="60 48 108 48 108 96 60 96"></polygon>
        <polygon id="Fill-7" fill="#FC3430" points="60 0 108 0 108 48 60 48"></polygon>
        <text id="tweakflow" font-family="Lato-Bold, Lato" font-size="186" font-weight="bold" fill="#000000">
            <tspan x="138" y="192">tweakflow</tspan>
        </text>
    </g>
</svg>