<?xml version="1.0" encoding="UTF-8"?>
<svg width="1050px" height="232px" viewBox="0 0 1050 232" version="1.1" xmlns="http://www.w3.org/2000/svg" xmlns:xlink="http://www.w3.org/1999/xlink">
    <!-- Generator: Sketch 46.2 (44496) - http://www.bohemiancoding.com/sketch -->
    <title>Slice 1</title>
    <desc>Created with Sketch.</desc>
    <defs></defs>
    <g id="Page-1" stroke="none" stroke-width="1" fill="none" fill-rule="evenodd">
        <polygon id="Fill-1" fill="#1603F8" points="0 48 48 48 48 96 0 96"></polygon>
        <polygon id="Fill-2" fill="#FDCD27" points="0 96 48 96 48 144 0 144"></polygon>
        <polygon id="Fill-3" fill="#19B6F9" points="0 144 48 144 48 191.99999 0 191.99999"></polygon>
        <polygon id="Fill-4" fill="#13902E" points="60 144 108 144 108 191.99999 60 191.99999"></polygon>
        <polygon id="Fill-5" fill="#23C559" points="60 96 108 96 108 144 60 144"></polygon>
        <polygon id="Fill-6" fill="#C8CEA9" points="60 48 108 48 108 96 60 96"></polygon>
        <polygon id="Fill-7" fill="#FC3430" points="60 0 108 0 108 48 60 48"></polygon>
        <path d="M181.152,193.488 C172.843958,193.488 166.473522,191.147523 162.0405,186.4665 C157.607478,181.785477 155.391,175.322041 155.391,167.076 L155.391,113.787 L145.626,113.787 C144.385994,113.787 143.332004,113.384004 142.464,112.578 C141.595996,111.771996 141.162,110.563008 141.162,108.951 L141.162,99.837 L156.507,97.326 L161.343,71.286 C161.653002,70.0459938 162.241996,69.0850034 163.11,68.403 C163.978004,67.7209966 165.093993,67.38 166.458,67.38 L178.362,67.38 L178.362,97.419 L203.844,97.419 L203.844,113.787 L178.362,113.787 L178.362,165.495 C178.362,168.471015 179.090493,170.795992 180.5475,172.47 C182.004507,174.144008 184.003987,174.981 186.546,174.981 C187.972007,174.981 189.165495,174.810502 190.1265,174.4695 C191.087505,174.128498 191.924496,173.772002 192.6375,173.4 C193.350504,173.027998 193.985997,172.671502 194.544,172.3305 C195.102003,171.989498 195.659997,171.819 196.218,171.819 C196.900003,171.819 197.457998,171.989498 197.892,172.3305 C198.326002,172.671502 198.790998,173.182997 199.287,173.865 L206.169,185.025 C202.820983,187.815014 198.977022,189.922993 194.637,191.349 C190.296978,192.775007 185.802023,193.488 181.152,193.488 Z M354.783,96.582 L324.465,192 L306.051,192 C303.942989,192 302.486004,190.636014 301.68,187.908 L284.568,132.759 C284.009997,130.898991 283.498502,129.054509 283.0335,127.2255 C282.568498,125.396491 282.181002,123.552009 281.871,121.692 C281.498998,123.552009 281.080502,125.427491 280.6155,127.3185 C280.150498,129.209509 279.639003,131.084991 279.081,132.945 L261.69,187.908 C260.945996,190.636014 259.303013,192 256.761,192 L239.091,192 L208.866,96.582 L227.187,96.582 C228.861008,96.582 230.286994,96.984996 231.465,97.791 C232.643006,98.597004 233.417998,99.6199938 233.79,100.86 L247.461,151.824 C248.143003,154.614014 248.747497,157.341987 249.2745,160.008 C249.801503,162.674013 250.250998,165.339987 250.623,168.006 C251.305003,165.339987 252.033496,162.674013 252.8085,160.008 C253.583504,157.341987 254.404996,154.614014 255.273,151.824 L271.083,100.674 C271.455002,99.4339938 272.183495,98.411004 273.2685,97.605 C274.353505,96.798996 275.670992,96.396 277.221,96.396 L287.358,96.396 C288.970008,96.396 290.349494,96.798996 291.4965,97.605 C292.643506,98.411004 293.402998,99.4339938 293.775,100.674 L309.12,151.824 C309.926004,154.614014 310.685496,157.357487 311.3985,160.0545 C312.111504,162.751513 312.808997,165.432987 313.491,168.099 C314.297004,162.828974 315.443993,157.404028 316.932,151.824 L330.975,100.86 C331.409002,99.6199938 332.183994,98.597004 333.3,97.791 C334.416006,96.984996 335.748992,96.582 337.299,96.582 L354.783,96.582 Z M429.276,133.317 C429.276,130.340985 428.857504,127.535513 428.0205,124.9005 C427.183496,122.265487 425.928008,119.95601 424.254,117.972 C422.579992,115.98799 420.456513,114.422506 417.8835,113.2755 C415.310487,112.128494 412.319017,111.555 408.909,111.555 C402.274967,111.555 397.051519,113.445981 393.2385,117.228 C389.425481,121.010019 386.992005,126.372965 385.938,133.317 L429.276,133.317 Z M385.473,147.174 C385.845002,152.072024 386.712993,156.303482 388.077,159.8685 C389.441007,163.433518 391.238989,166.378488 393.471,168.7035 C395.703011,171.028512 398.353485,172.764494 401.4225,173.9115 C404.491515,175.058506 407.885981,175.632 411.606,175.632 C415.326019,175.632 418.534487,175.198004 421.2315,174.33 C423.928513,173.461996 426.28449,172.501005 428.2995,171.447 C430.31451,170.392995 432.081492,169.432004 433.6005,168.564 C435.119508,167.695996 436.591993,167.262 438.018,167.262 C439.94001,167.262 441.365995,167.974993 442.296,169.401 L448.899,177.771 C446.356987,180.747015 443.505016,183.24249 440.343,185.2575 C437.180984,187.27251 433.879517,188.884494 430.4385,190.0935 C426.997483,191.302506 423.494518,192.154998 419.9295,192.651 C416.364482,193.147002 412.908017,193.395 409.56,193.395 C402.925967,193.395 396.757029,192.294511 391.053,190.0935 C385.348971,187.892489 380.389021,184.637522 376.173,180.3285 C371.956979,176.019478 368.640012,170.687532 366.222,164.3325 C363.803988,157.977468 362.595,150.615042 362.595,142.245 C362.595,135.734967 363.648989,129.612529 365.757,123.8775 C367.865011,118.142471 370.88748,113.151521 374.8245,108.9045 C378.76152,104.657479 383.566472,101.294012 389.2395,98.814 C394.912528,96.3339876 401.313964,95.094 408.444,95.094 C414.45803,95.094 420.006975,96.0549904 425.091,97.977 C430.175025,99.8990096 434.545982,102.704482 438.204,106.3935 C441.862018,110.082518 444.72949,114.608473 446.8065,119.9715 C448.88351,125.334527 449.922,131.456966 449.922,138.339 C449.922,141.811017 449.550004,144.151494 448.806,145.3605 C448.061996,146.569506 446.636011,147.174 444.528,147.174 L385.473,147.174 Z M517.533,151.266 C510.898967,151.576002 505.319023,152.149496 500.793,152.9865 C496.266977,153.823504 492.640014,154.892993 489.912,156.195 C487.183986,157.497007 485.231006,159.015991 484.053,160.752 C482.874994,162.488009 482.286,164.37899 482.286,166.425 C482.286,170.45502 483.479488,173.337991 485.8665,175.074 C488.253512,176.810009 491.368981,177.678 495.213,177.678 C499.925024,177.678 504.001483,176.825509 507.4425,175.1205 C510.883517,173.415491 514.246984,170.827017 517.533,167.355 L517.533,151.266 Z M464.895,109.881 C475.869055,99.8369498 489.074923,94.815 504.513,94.815 C510.093028,94.815 515.083978,95.7294909 519.486,97.5585 C523.888022,99.3875091 527.607985,101.929484 530.646,105.1845 C533.684015,108.439516 535.993492,112.329977 537.5745,116.856 C539.155508,121.382023 539.946,126.341973 539.946,131.736 L539.946,192 L529.53,192 C527.359989,192 525.686006,191.674503 524.508,191.0235 C523.329994,190.372497 522.400003,189.05501 521.718,187.071 L519.672,180.189 C517.253988,182.359011 514.898011,184.265492 512.604,185.9085 C510.309989,187.551508 507.923012,188.930994 505.443,190.047 C502.962988,191.163006 500.312514,192.015497 497.4915,192.6045 C494.670486,193.193503 491.555017,193.488 488.145,193.488 C484.11498,193.488 480.395017,192.945505 476.985,191.8605 C473.574983,190.775495 470.630012,189.148011 468.15,186.978 C465.669988,184.807989 463.748007,182.111016 462.384,178.887 C461.019993,175.662984 460.338,171.912021 460.338,167.634 C460.338,165.215988 460.740996,162.813512 461.547,160.4265 C462.353004,158.039488 463.670491,155.761011 465.4995,153.591 C467.328509,151.420989 469.699985,149.37501 472.614,147.453 C475.528015,145.53099 479.108479,143.857007 483.3555,142.431 C487.602521,141.004993 492.546972,139.842504 498.189,138.9435 C503.831028,138.044496 510.278964,137.502001 517.533,137.316 L517.533,131.736 C517.533,125.349968 516.169014,120.622515 513.441,117.5535 C510.712986,114.484485 506.776026,112.95 501.63,112.95 C497.909981,112.95 494.825512,113.383996 492.3765,114.252 C489.927488,115.120004 487.773009,116.096495 485.913,117.1815 C484.052991,118.266505 482.363508,119.242996 480.8445,120.111 C479.325492,120.979004 477.636009,121.413 475.776,121.413 C474.163992,121.413 472.800006,120.994504 471.684,120.1575 C470.567994,119.320496 469.669003,118.344006 468.987,117.228 L464.895,109.881 Z M584.493,53.802 L584.493,132.945 L588.771,132.945 C590.321008,132.945 591.545496,132.743502 592.4445,132.3405 C593.343504,131.937498 594.257995,131.116006 595.188,129.876 L618.903,100.581 C619.895005,99.2789935 620.995494,98.2870034 622.2045,97.605 C623.413506,96.9229966 624.97899,96.582 626.901,96.582 L647.919,96.582 L618.252,132.015 C616.143989,134.805014 613.850012,136.943993 611.37,138.432 C612.672007,139.362005 613.834495,140.446994 614.8575,141.687 C615.880505,142.927006 616.856995,144.259993 617.787,145.686 L649.593,192 L628.854,192 C627.055991,192 625.506007,191.705503 624.204,191.1165 C622.901993,190.527497 621.817004,189.458008 620.949,187.908 L596.583,151.731 C595.714996,150.304993 594.816005,149.375002 593.886,148.941 C592.955995,148.506998 591.561009,148.29 589.701,148.29 L584.493,148.29 L584.493,192 L561.522,192 L561.522,53.802 L584.493,53.802 Z M667.728,192 L667.728,113.88 L659.451,112.578 C657.652991,112.205998 656.211505,111.570504 655.1265,110.6715 C654.041495,109.772496 653.499,108.486008 653.499,106.812 L653.499,97.419 L667.728,97.419 L667.728,93.42 C667.728,88.3359746 668.533992,83.4690232 670.146,78.819 C671.758008,74.1689768 674.206984,70.0615178 677.493,66.4965 C680.779016,62.9314822 684.932975,60.0795107 689.955,57.9405 C694.977025,55.8014893 700.897966,54.732 707.718,54.732 C712.988026,54.732 717.963477,54.9024983 722.6445,55.2435 C727.325523,55.5845017 731.990977,55.7859997 736.641,55.848 L751.8,55.848 L751.8,192 L728.922,192 L728.922,71.844 C725.635984,71.7199994 722.427516,71.5650009 719.2965,71.379 C716.165484,71.1929991 713.515011,71.1 711.345,71.1 C704.400965,71.1 699.100018,73.0374806 695.442,76.9125 C691.783982,80.7875194 689.955,86.2899643 689.955,93.42 L689.955,97.419 L712.554,97.419 L712.554,113.787 L690.699,113.787 L690.699,192 L667.728,192 Z M816.993,95.094 C824.061035,95.094 830.493471,96.2409885 836.2905,98.535 C842.087529,100.829011 847.047479,104.083979 851.1705,108.3 C855.293521,112.516021 858.470989,117.66197 860.703,123.738 C862.935011,129.81403 864.051,136.602962 864.051,144.105 C864.051,151.669038 862.935011,158.48897 860.703,164.565 C858.470989,170.64103 855.293521,175.817979 851.1705,180.096 C847.047479,184.374021 842.087529,187.659989 836.2905,189.954 C830.493471,192.248011 824.061035,193.395 816.993,193.395 C809.862964,193.395 803.384029,192.248011 797.556,189.954 C791.727971,187.659989 786.752521,184.374021 782.6295,180.096 C778.506479,175.817979 775.313511,170.64103 773.0505,164.565 C770.787489,158.48897 769.656,151.669038 769.656,144.105 C769.656,136.602962 770.787489,129.81403 773.0505,123.738 C775.313511,117.66197 778.506479,112.516021 782.6295,108.3 C786.752521,104.083979 791.727971,100.829011 797.556,98.535 C803.384029,96.2409885 809.862964,95.094 816.993,95.094 Z M816.993,175.725 C824.92904,175.725 830.803481,173.059027 834.6165,167.727 C838.429519,162.394973 840.336,154.583051 840.336,144.291 C840.336,133.998949 838.429519,126.156027 834.6165,120.762 C830.803481,115.367973 824.92904,112.671 816.993,112.671 C808.93296,112.671 802.965519,115.383473 799.0905,120.8085 C795.215481,126.233527 793.278,134.060949 793.278,144.291 C793.278,154.521051 795.215481,162.317473 799.0905,167.6805 C802.965519,173.043527 808.93296,175.725 816.993,175.725 Z M1017.873,96.582 L987.555,192 L969.141,192 C967.032989,192 965.576004,190.636014 964.77,187.908 L947.658,132.759 C947.099997,130.898991 946.588502,129.054509 946.1235,127.2255 C945.658498,125.396491 945.271002,123.552009 944.961,121.692 C944.588998,123.552009 944.170502,125.427491 943.7055,127.3185 C943.240498,129.209509 942.729003,131.084991 942.171,132.945 L924.78,187.908 C924.035996,190.636014 922.393013,192 919.851,192 L902.181,192 L871.956,96.582 L890.277,96.582 C891.951008,96.582 893.376994,96.984996 894.555,97.791 C895.733006,98.597004 896.507998,99.6199938 896.88,100.86 L910.551,151.824 C911.233003,154.614014 911.837497,157.341987 912.3645,160.008 C912.891503,162.674013 913.340998,165.339987 913.713,168.006 C914.395003,165.339987 915.123496,162.674013 915.8985,160.008 C916.673504,157.341987 917.494996,154.614014 918.363,151.824 L934.173,100.674 C934.545002,99.4339938 935.273495,98.411004 936.3585,97.605 C937.443505,96.798996 938.760992,96.396 940.311,96.396 L950.448,96.396 C952.060008,96.396 953.439494,96.798996 954.5865,97.605 C955.733506,98.411004 956.492998,99.4339938 956.865,100.674 L972.21,151.824 C973.016004,154.614014 973.775496,157.357487 974.4885,160.0545 C975.201504,162.751513 975.898997,165.432987 976.581,168.099 C977.387004,162.828974 978.533993,157.404028 980.022,151.824 L994.065,100.86 C994.499002,99.6199938 995.273994,98.597004 996.39,97.791 C997.506006,96.984996 998.838992,96.582 1000.389,96.582 L1017.873,96.582 Z" id="tweakflow" fill="#000000"></path>
    </g>
</svg>